<mxfile host="app.diagrams.net" modified="2021-05-18T00:53:59.074Z" agent="5.0 (Windows NT 10.0; Win64; x64) AppleWebKit/537.36 (KHTML, like Gecko) Chrome/92.0.4510.0 Safari/537.36" etag="y-LUC-22SXnaq-vDV_9f" version="14.6.13" type="github">
  <diagram id="fxetx4OoZ5X_kTdKoYz4" name="Page-1">
    <mxGraphModel dx="1183" dy="668" grid="1" gridSize="10" guides="1" tooltips="1" connect="1" arrows="1" fold="1" page="1" pageScale="1" pageWidth="827" pageHeight="1169" math="0" shadow="0">
      <root>
        <mxCell id="0" />
        <mxCell id="1" parent="0" />
        <mxCell id="BrNkuaIXWp9q4k69Yl54-7" value="" style="rounded=0;whiteSpace=wrap;html=1;" vertex="1" parent="1">
          <mxGeometry x="1030" y="25" width="180" height="270" as="geometry" />
        </mxCell>
        <mxCell id="hYOv2v-Nhsj0v9cPK5zJ-5" value="" style="shape=process;whiteSpace=wrap;html=1;backgroundOutline=1;fillColor=#dae8fc;strokeColor=#6c8ebf;" parent="1" vertex="1">
          <mxGeometry width="920" height="420" as="geometry" />
        </mxCell>
        <mxCell id="hYOv2v-Nhsj0v9cPK5zJ-9" value="" style="shape=process;whiteSpace=wrap;html=1;backgroundOutline=1;fillColor=#d5e8d4;strokeColor=#82b366;" parent="1" vertex="1">
          <mxGeometry y="420" width="920" height="260" as="geometry" />
        </mxCell>
        <mxCell id="hYOv2v-Nhsj0v9cPK5zJ-10" value="" style="shape=process;whiteSpace=wrap;html=1;backgroundOutline=1;fillColor=#ffe6cc;strokeColor=#d79b00;" parent="1" vertex="1">
          <mxGeometry x="1" y="680" width="919" height="450" as="geometry" />
        </mxCell>
        <mxCell id="hYOv2v-Nhsj0v9cPK5zJ-13" value="" style="rounded=0;whiteSpace=wrap;html=1;rotation=-90;" parent="1" vertex="1">
          <mxGeometry x="-10" y="180" width="120" height="60" as="geometry" />
        </mxCell>
        <mxCell id="hYOv2v-Nhsj0v9cPK5zJ-8" value="&lt;font style=&quot;font-size: 20px&quot;&gt;USUARIO&lt;/font&gt;" style="text;html=1;strokeColor=none;fillColor=none;align=center;verticalAlign=middle;whiteSpace=wrap;rounded=0;rotation=-90;" parent="1" vertex="1">
          <mxGeometry x="-55" y="200" width="200" height="20" as="geometry" />
        </mxCell>
        <mxCell id="hYOv2v-Nhsj0v9cPK5zJ-14" value="" style="rounded=0;whiteSpace=wrap;html=1;rotation=-90;" parent="1" vertex="1">
          <mxGeometry x="-67.5" y="520" width="235" height="60" as="geometry" />
        </mxCell>
        <mxCell id="hYOv2v-Nhsj0v9cPK5zJ-11" value="&lt;font style=&quot;font-size: 20px&quot;&gt;Central de Serviços de TI&lt;br&gt;&amp;nbsp;e Nivel 1&lt;br&gt;&lt;/font&gt;" style="text;html=1;strokeColor=none;fillColor=none;align=center;verticalAlign=middle;whiteSpace=wrap;rounded=0;rotation=-90;" parent="1" vertex="1">
          <mxGeometry x="-62.5" y="529.9999999999998" width="240" height="50" as="geometry" />
        </mxCell>
        <mxCell id="hYOv2v-Nhsj0v9cPK5zJ-16" value="" style="rounded=0;whiteSpace=wrap;html=1;rotation=-90;" parent="1" vertex="1">
          <mxGeometry x="-62.5" y="869.9999999999998" width="225" height="60" as="geometry" />
        </mxCell>
        <mxCell id="hYOv2v-Nhsj0v9cPK5zJ-12" value="&lt;font style=&quot;font-size: 20px&quot;&gt;Suporte a Aplicação&lt;br&gt;Níveis 2&lt;br&gt;&lt;/font&gt;" style="text;html=1;strokeColor=none;fillColor=none;align=center;verticalAlign=middle;whiteSpace=wrap;rounded=0;rotation=-90;" parent="1" vertex="1">
          <mxGeometry x="-84" y="879.9999999999998" width="270" height="50" as="geometry" />
        </mxCell>
        <mxCell id="hYOv2v-Nhsj0v9cPK5zJ-34" value="" style="edgeStyle=orthogonalEdgeStyle;rounded=0;orthogonalLoop=1;jettySize=auto;html=1;" parent="1" source="hYOv2v-Nhsj0v9cPK5zJ-28" target="hYOv2v-Nhsj0v9cPK5zJ-33" edge="1">
          <mxGeometry relative="1" as="geometry" />
        </mxCell>
        <mxCell id="hYOv2v-Nhsj0v9cPK5zJ-28" value="Falha de Login" style="rounded=1;whiteSpace=wrap;html=1;" parent="1" vertex="1">
          <mxGeometry x="160" y="20" width="120" height="60" as="geometry" />
        </mxCell>
        <mxCell id="hYOv2v-Nhsj0v9cPK5zJ-42" style="edgeStyle=orthogonalEdgeStyle;rounded=0;orthogonalLoop=1;jettySize=auto;html=1;" parent="1" source="hYOv2v-Nhsj0v9cPK5zJ-33" target="hYOv2v-Nhsj0v9cPK5zJ-41" edge="1">
          <mxGeometry relative="1" as="geometry" />
        </mxCell>
        <mxCell id="hYOv2v-Nhsj0v9cPK5zJ-51" style="edgeStyle=orthogonalEdgeStyle;rounded=0;orthogonalLoop=1;jettySize=auto;html=1;entryX=0.5;entryY=0;entryDx=0;entryDy=0;" parent="1" source="hYOv2v-Nhsj0v9cPK5zJ-33" target="hYOv2v-Nhsj0v9cPK5zJ-52" edge="1">
          <mxGeometry relative="1" as="geometry">
            <mxPoint x="220" y="249.9999999999999" as="targetPoint" />
          </mxGeometry>
        </mxCell>
        <mxCell id="hYOv2v-Nhsj0v9cPK5zJ-33" value="Ele tem Cadastro?" style="rhombus;whiteSpace=wrap;html=1;rounded=1;" parent="1" vertex="1">
          <mxGeometry x="145" y="120" width="150" height="80" as="geometry" />
        </mxCell>
        <mxCell id="hYOv2v-Nhsj0v9cPK5zJ-45" value="" style="edgeStyle=orthogonalEdgeStyle;rounded=0;orthogonalLoop=1;jettySize=auto;html=1;entryX=0;entryY=0.5;entryDx=0;entryDy=0;" parent="1" source="hYOv2v-Nhsj0v9cPK5zJ-41" target="hYOv2v-Nhsj0v9cPK5zJ-74" edge="1">
          <mxGeometry relative="1" as="geometry">
            <mxPoint x="560" y="160.0000000000001" as="targetPoint" />
          </mxGeometry>
        </mxCell>
        <mxCell id="hYOv2v-Nhsj0v9cPK5zJ-41" value="Redirecionar para&lt;br&gt;o Cadastro" style="rounded=0;whiteSpace=wrap;html=1;" parent="1" vertex="1">
          <mxGeometry x="360" y="130" width="120" height="60" as="geometry" />
        </mxCell>
        <mxCell id="hYOv2v-Nhsj0v9cPK5zJ-43" value="&lt;b&gt;Não&lt;/b&gt;" style="text;html=1;strokeColor=none;fillColor=none;align=center;verticalAlign=middle;whiteSpace=wrap;rounded=0;" parent="1" vertex="1">
          <mxGeometry x="300" y="130" width="40" height="20" as="geometry" />
        </mxCell>
        <mxCell id="hYOv2v-Nhsj0v9cPK5zJ-48" value="" style="endArrow=classic;html=1;entryX=1;entryY=0.5;entryDx=0;entryDy=0;exitX=0.55;exitY=-0.038;exitDx=0;exitDy=0;exitPerimeter=0;" parent="1" target="hYOv2v-Nhsj0v9cPK5zJ-28" edge="1">
          <mxGeometry width="50" height="50" relative="1" as="geometry">
            <mxPoint x="626" y="127.72000000000003" as="sourcePoint" />
            <mxPoint x="680" y="60" as="targetPoint" />
            <Array as="points">
              <mxPoint x="626" y="50" />
              <mxPoint x="470" y="50" />
            </Array>
          </mxGeometry>
        </mxCell>
        <mxCell id="hYOv2v-Nhsj0v9cPK5zJ-58" style="edgeStyle=orthogonalEdgeStyle;rounded=0;orthogonalLoop=1;jettySize=auto;html=1;" parent="1" source="hYOv2v-Nhsj0v9cPK5zJ-52" target="hYOv2v-Nhsj0v9cPK5zJ-54" edge="1">
          <mxGeometry relative="1" as="geometry" />
        </mxCell>
        <mxCell id="hYOv2v-Nhsj0v9cPK5zJ-71" style="edgeStyle=orthogonalEdgeStyle;rounded=0;orthogonalLoop=1;jettySize=auto;html=1;" parent="1" source="hYOv2v-Nhsj0v9cPK5zJ-52" target="hYOv2v-Nhsj0v9cPK5zJ-70" edge="1">
          <mxGeometry relative="1" as="geometry" />
        </mxCell>
        <mxCell id="hYOv2v-Nhsj0v9cPK5zJ-52" value="Os Dados Preenchidos&lt;br&gt;Estão Corretos?" style="rhombus;whiteSpace=wrap;html=1;rounded=1;" parent="1" vertex="1">
          <mxGeometry x="136.25" y="240" width="167.5" height="80" as="geometry" />
        </mxCell>
        <mxCell id="hYOv2v-Nhsj0v9cPK5zJ-65" style="edgeStyle=orthogonalEdgeStyle;rounded=0;orthogonalLoop=1;jettySize=auto;html=1;entryX=0.5;entryY=0;entryDx=0;entryDy=0;" parent="1" source="hYOv2v-Nhsj0v9cPK5zJ-54" target="hYOv2v-Nhsj0v9cPK5zJ-75" edge="1">
          <mxGeometry relative="1" as="geometry">
            <mxPoint x="443.75" y="349.9999999999999" as="targetPoint" />
          </mxGeometry>
        </mxCell>
        <mxCell id="hYOv2v-Nhsj0v9cPK5zJ-54" value="Esqueceu a Senha?" style="rhombus;whiteSpace=wrap;html=1;rounded=1;" parent="1" vertex="1">
          <mxGeometry x="360" y="240" width="167.5" height="80" as="geometry" />
        </mxCell>
        <mxCell id="hYOv2v-Nhsj0v9cPK5zJ-57" value="" style="endArrow=classic;html=1;exitX=0.97;exitY=0.498;exitDx=0;exitDy=0;exitPerimeter=0;entryX=0.955;entryY=0.033;entryDx=0;entryDy=0;entryPerimeter=0;" parent="1" source="hYOv2v-Nhsj0v9cPK5zJ-54" target="hYOv2v-Nhsj0v9cPK5zJ-28" edge="1">
          <mxGeometry width="50" height="50" relative="1" as="geometry">
            <mxPoint x="550" y="310" as="sourcePoint" />
            <mxPoint x="600" y="260" as="targetPoint" />
            <Array as="points">
              <mxPoint x="780" y="280" />
              <mxPoint x="780" y="160" />
              <mxPoint x="780" y="22" />
            </Array>
          </mxGeometry>
        </mxCell>
        <mxCell id="hYOv2v-Nhsj0v9cPK5zJ-59" value="&lt;b&gt;Não&lt;/b&gt;" style="text;html=1;strokeColor=none;fillColor=none;align=center;verticalAlign=middle;whiteSpace=wrap;rounded=0;shadow=0;" parent="1" vertex="1">
          <mxGeometry x="500" y="130" width="40" height="20" as="geometry" />
        </mxCell>
        <mxCell id="hYOv2v-Nhsj0v9cPK5zJ-60" value="&lt;b&gt;Não&lt;/b&gt;" style="text;html=1;strokeColor=none;fillColor=none;align=center;verticalAlign=middle;whiteSpace=wrap;rounded=0;" parent="1" vertex="1">
          <mxGeometry x="310" y="250" width="40" height="20" as="geometry" />
        </mxCell>
        <mxCell id="hYOv2v-Nhsj0v9cPK5zJ-61" value="&lt;b&gt;Não&lt;/b&gt;" style="text;html=1;strokeColor=none;fillColor=none;align=center;verticalAlign=middle;whiteSpace=wrap;rounded=0;" parent="1" vertex="1">
          <mxGeometry x="527.5" y="250" width="40" height="20" as="geometry" />
        </mxCell>
        <mxCell id="hYOv2v-Nhsj0v9cPK5zJ-66" value="&lt;b&gt;Sim&lt;/b&gt;" style="text;html=1;strokeColor=none;fillColor=none;align=center;verticalAlign=middle;whiteSpace=wrap;rounded=0;" parent="1" vertex="1">
          <mxGeometry x="460" y="320" width="40" height="20" as="geometry" />
        </mxCell>
        <mxCell id="hYOv2v-Nhsj0v9cPK5zJ-77" style="edgeStyle=orthogonalEdgeStyle;rounded=0;orthogonalLoop=1;jettySize=auto;html=1;entryX=0.5;entryY=0;entryDx=0;entryDy=0;" parent="1" source="hYOv2v-Nhsj0v9cPK5zJ-70" target="hYOv2v-Nhsj0v9cPK5zJ-80" edge="1">
          <mxGeometry relative="1" as="geometry">
            <mxPoint x="226.25" y="460" as="targetPoint" />
          </mxGeometry>
        </mxCell>
        <mxCell id="hYOv2v-Nhsj0v9cPK5zJ-70" value="Contate o Suporte" style="rounded=0;whiteSpace=wrap;html=1;shadow=0;" parent="1" vertex="1">
          <mxGeometry x="160" y="350" width="120" height="60" as="geometry" />
        </mxCell>
        <mxCell id="hYOv2v-Nhsj0v9cPK5zJ-74" value="&#xa;&#xa;&lt;span style=&quot;color: rgb(0, 0, 0); font-family: helvetica; font-size: 12px; font-style: normal; font-weight: 400; letter-spacing: normal; text-align: center; text-indent: 0px; text-transform: none; word-spacing: 0px; background-color: rgb(248, 249, 250); display: inline; float: none;&quot;&gt;Preencher Campos&lt;/span&gt;&lt;br style=&quot;color: rgb(0, 0, 0); font-family: helvetica; font-size: 12px; font-style: normal; font-weight: 400; letter-spacing: normal; text-align: center; text-indent: 0px; text-transform: none; word-spacing: 0px; background-color: rgb(248, 249, 250);&quot;&gt;&lt;span style=&quot;color: rgb(0, 0, 0); font-family: helvetica; font-size: 12px; font-style: normal; font-weight: 400; letter-spacing: normal; text-align: center; text-indent: 0px; text-transform: none; word-spacing: 0px; background-color: rgb(248, 249, 250); display: inline; float: none;&quot;&gt;do&lt;/span&gt;&lt;br style=&quot;color: rgb(0, 0, 0); font-family: helvetica; font-size: 12px; font-style: normal; font-weight: 400; letter-spacing: normal; text-align: center; text-indent: 0px; text-transform: none; word-spacing: 0px; background-color: rgb(248, 249, 250);&quot;&gt;&lt;span style=&quot;color: rgb(0, 0, 0); font-family: helvetica; font-size: 12px; font-style: normal; font-weight: 400; letter-spacing: normal; text-align: center; text-indent: 0px; text-transform: none; word-spacing: 0px; background-color: rgb(248, 249, 250); display: inline; float: none;&quot;&gt;Cadastro&lt;/span&gt;&#xa;&#xa;" style="shape=process;whiteSpace=wrap;html=1;backgroundOutline=1;shadow=0;" parent="1" vertex="1">
          <mxGeometry x="567.5" y="130" width="120" height="60" as="geometry" />
        </mxCell>
        <mxCell id="hYOv2v-Nhsj0v9cPK5zJ-75" value="Atualizar a Senha" style="shape=process;whiteSpace=wrap;html=1;backgroundOutline=1;shadow=0;" parent="1" vertex="1">
          <mxGeometry x="383.75" y="350" width="120" height="60" as="geometry" />
        </mxCell>
        <mxCell id="hYOv2v-Nhsj0v9cPK5zJ-82" style="edgeStyle=orthogonalEdgeStyle;rounded=0;orthogonalLoop=1;jettySize=auto;html=1;" parent="1" source="hYOv2v-Nhsj0v9cPK5zJ-80" target="hYOv2v-Nhsj0v9cPK5zJ-81" edge="1">
          <mxGeometry relative="1" as="geometry" />
        </mxCell>
        <mxCell id="hYOv2v-Nhsj0v9cPK5zJ-80" value="Verificar Dados dos&lt;br&gt;Usuarios" style="rounded=0;whiteSpace=wrap;html=1;shadow=0;" parent="1" vertex="1">
          <mxGeometry x="160" y="450" width="120" height="60" as="geometry" />
        </mxCell>
        <mxCell id="hYOv2v-Nhsj0v9cPK5zJ-118" style="edgeStyle=orthogonalEdgeStyle;rounded=0;orthogonalLoop=1;jettySize=auto;html=1;" parent="1" source="hYOv2v-Nhsj0v9cPK5zJ-81" target="hYOv2v-Nhsj0v9cPK5zJ-115" edge="1">
          <mxGeometry relative="1" as="geometry" />
        </mxCell>
        <mxCell id="hYOv2v-Nhsj0v9cPK5zJ-81" value="Dados estão Corretos?" style="rhombus;whiteSpace=wrap;html=1;rounded=1;" parent="1" vertex="1">
          <mxGeometry x="136.25" y="540" width="167.5" height="80" as="geometry" />
        </mxCell>
        <mxCell id="hYOv2v-Nhsj0v9cPK5zJ-83" value="&lt;b&gt;Não&lt;/b&gt;" style="text;html=1;strokeColor=none;fillColor=none;align=center;verticalAlign=middle;whiteSpace=wrap;rounded=0;" parent="1" vertex="1">
          <mxGeometry x="310" y="550" width="40" height="20" as="geometry" />
        </mxCell>
        <mxCell id="hYOv2v-Nhsj0v9cPK5zJ-88" value="&lt;b&gt;Sim&lt;/b&gt;" style="text;html=1;strokeColor=none;fillColor=none;align=center;verticalAlign=middle;whiteSpace=wrap;rounded=0;" parent="1" vertex="1">
          <mxGeometry x="230" y="200" width="40" height="20" as="geometry" />
        </mxCell>
        <mxCell id="hYOv2v-Nhsj0v9cPK5zJ-89" value="&lt;b&gt;Sim&lt;/b&gt;" style="text;html=1;strokeColor=none;fillColor=none;align=center;verticalAlign=middle;whiteSpace=wrap;rounded=0;" parent="1" vertex="1">
          <mxGeometry x="230" y="90" width="40" height="20" as="geometry" />
        </mxCell>
        <mxCell id="hYOv2v-Nhsj0v9cPK5zJ-90" value="&lt;b&gt;Sim&lt;/b&gt;" style="text;html=1;strokeColor=none;fillColor=none;align=center;verticalAlign=middle;whiteSpace=wrap;rounded=0;" parent="1" vertex="1">
          <mxGeometry x="230" y="320" width="40" height="20" as="geometry" />
        </mxCell>
        <mxCell id="hYOv2v-Nhsj0v9cPK5zJ-91" value="&lt;b&gt;Sim&lt;/b&gt;" style="text;html=1;strokeColor=none;fillColor=none;align=center;verticalAlign=middle;whiteSpace=wrap;rounded=0;" parent="1" vertex="1">
          <mxGeometry x="230" y="420" width="40" height="20" as="geometry" />
        </mxCell>
        <mxCell id="hYOv2v-Nhsj0v9cPK5zJ-92" value="&lt;b&gt;Sim&lt;/b&gt;" style="text;html=1;strokeColor=none;fillColor=none;align=center;verticalAlign=middle;whiteSpace=wrap;rounded=0;" parent="1" vertex="1">
          <mxGeometry x="230" y="520" width="40" height="20" as="geometry" />
        </mxCell>
        <mxCell id="hYOv2v-Nhsj0v9cPK5zJ-94" value="" style="endArrow=classic;html=1;exitX=0.975;exitY=0.501;exitDx=0;exitDy=0;exitPerimeter=0;entryX=0;entryY=0.5;entryDx=0;entryDy=0;" parent="1" source="hYOv2v-Nhsj0v9cPK5zJ-81" target="hYOv2v-Nhsj0v9cPK5zJ-96" edge="1">
          <mxGeometry width="50" height="50" relative="1" as="geometry">
            <mxPoint x="310" y="660" as="sourcePoint" />
            <mxPoint x="360" y="580" as="targetPoint" />
          </mxGeometry>
        </mxCell>
        <mxCell id="hYOv2v-Nhsj0v9cPK5zJ-98" style="edgeStyle=orthogonalEdgeStyle;rounded=0;orthogonalLoop=1;jettySize=auto;html=1;entryX=0;entryY=0.5;entryDx=0;entryDy=0;" parent="1" source="hYOv2v-Nhsj0v9cPK5zJ-96" target="hYOv2v-Nhsj0v9cPK5zJ-97" edge="1">
          <mxGeometry relative="1" as="geometry" />
        </mxCell>
        <mxCell id="hYOv2v-Nhsj0v9cPK5zJ-96" value="Confirmar identidade por Email" style="shape=process;whiteSpace=wrap;html=1;backgroundOutline=1;shadow=0;" parent="1" vertex="1">
          <mxGeometry x="380" y="550" width="120" height="60" as="geometry" />
        </mxCell>
        <mxCell id="hYOv2v-Nhsj0v9cPK5zJ-102" style="edgeStyle=orthogonalEdgeStyle;rounded=0;orthogonalLoop=1;jettySize=auto;html=1;entryX=0.5;entryY=1;entryDx=0;entryDy=0;" parent="1" source="hYOv2v-Nhsj0v9cPK5zJ-97" target="hYOv2v-Nhsj0v9cPK5zJ-107" edge="1">
          <mxGeometry relative="1" as="geometry">
            <mxPoint x="628.75" y="500" as="targetPoint" />
          </mxGeometry>
        </mxCell>
        <mxCell id="hYOv2v-Nhsj0v9cPK5zJ-111" style="edgeStyle=orthogonalEdgeStyle;rounded=0;orthogonalLoop=1;jettySize=auto;html=1;entryX=0.5;entryY=0;entryDx=0;entryDy=0;" parent="1" source="hYOv2v-Nhsj0v9cPK5zJ-97" target="hYOv2v-Nhsj0v9cPK5zJ-110" edge="1">
          <mxGeometry relative="1" as="geometry" />
        </mxCell>
        <mxCell id="hYOv2v-Nhsj0v9cPK5zJ-97" value="Identidade é Verdadeira?" style="rhombus;whiteSpace=wrap;html=1;rounded=1;" parent="1" vertex="1">
          <mxGeometry x="550" y="540" width="157.5" height="80" as="geometry" />
        </mxCell>
        <mxCell id="hYOv2v-Nhsj0v9cPK5zJ-104" value="&lt;b&gt;Não&lt;/b&gt;" style="text;html=1;strokeColor=none;fillColor=none;align=center;verticalAlign=middle;whiteSpace=wrap;rounded=0;" parent="1" vertex="1">
          <mxGeometry x="640" y="520" width="40" height="20" as="geometry" />
        </mxCell>
        <mxCell id="hYOv2v-Nhsj0v9cPK5zJ-107" value="" style="ellipse;whiteSpace=wrap;html=1;aspect=fixed;shadow=0;fillColor=#f8cecc;strokeColor=#b85450;gradientColor=#ea6b66;" parent="1" vertex="1">
          <mxGeometry x="613.75" y="465" width="30" height="30" as="geometry" />
        </mxCell>
        <mxCell id="hYOv2v-Nhsj0v9cPK5zJ-109" value="&lt;b&gt;Sim&lt;/b&gt;" style="text;html=1;strokeColor=none;fillColor=none;align=center;verticalAlign=middle;whiteSpace=wrap;rounded=0;" parent="1" vertex="1">
          <mxGeometry x="640" y="620" width="40" height="20" as="geometry" />
        </mxCell>
        <mxCell id="hYOv2v-Nhsj0v9cPK5zJ-149" style="edgeStyle=orthogonalEdgeStyle;rounded=0;orthogonalLoop=1;jettySize=auto;html=1;" parent="1" source="hYOv2v-Nhsj0v9cPK5zJ-110" target="hYOv2v-Nhsj0v9cPK5zJ-136" edge="1">
          <mxGeometry relative="1" as="geometry" />
        </mxCell>
        <mxCell id="hYOv2v-Nhsj0v9cPK5zJ-110" value="Alterar Dados da Conta do Usuario" style="rounded=0;whiteSpace=wrap;html=1;shadow=0;" parent="1" vertex="1">
          <mxGeometry x="568.75" y="690" width="120" height="60" as="geometry" />
        </mxCell>
        <mxCell id="hYOv2v-Nhsj0v9cPK5zJ-114" value="&lt;b&gt;Sim&lt;/b&gt;" style="text;html=1;strokeColor=none;fillColor=none;align=center;verticalAlign=middle;whiteSpace=wrap;rounded=0;" parent="1" vertex="1">
          <mxGeometry x="230" y="630" width="40" height="20" as="geometry" />
        </mxCell>
        <mxCell id="hYOv2v-Nhsj0v9cPK5zJ-120" style="edgeStyle=orthogonalEdgeStyle;rounded=0;orthogonalLoop=1;jettySize=auto;html=1;" parent="1" source="hYOv2v-Nhsj0v9cPK5zJ-115" target="hYOv2v-Nhsj0v9cPK5zJ-119" edge="1">
          <mxGeometry relative="1" as="geometry" />
        </mxCell>
        <mxCell id="hYOv2v-Nhsj0v9cPK5zJ-115" value="Verificação do Sistema" style="shape=process;whiteSpace=wrap;html=1;backgroundOutline=1;shadow=0;" parent="1" vertex="1">
          <mxGeometry x="160" y="700" width="120" height="60" as="geometry" />
        </mxCell>
        <mxCell id="hYOv2v-Nhsj0v9cPK5zJ-125" style="edgeStyle=orthogonalEdgeStyle;rounded=0;orthogonalLoop=1;jettySize=auto;html=1;entryX=0;entryY=0.5;entryDx=0;entryDy=0;" parent="1" source="hYOv2v-Nhsj0v9cPK5zJ-119" target="hYOv2v-Nhsj0v9cPK5zJ-133" edge="1">
          <mxGeometry relative="1" as="geometry">
            <mxPoint x="340" y="840" as="targetPoint" />
          </mxGeometry>
        </mxCell>
        <mxCell id="hYOv2v-Nhsj0v9cPK5zJ-119" value="Sistema esta Funcional?" style="rhombus;whiteSpace=wrap;html=1;rounded=1;" parent="1" vertex="1">
          <mxGeometry x="136.25" y="800" width="167.5" height="80" as="geometry" />
        </mxCell>
        <mxCell id="hYOv2v-Nhsj0v9cPK5zJ-121" value="&lt;b&gt;Não&lt;/b&gt;" style="text;html=1;strokeColor=none;fillColor=none;align=center;verticalAlign=middle;whiteSpace=wrap;rounded=0;" parent="1" vertex="1">
          <mxGeometry x="320" y="810" width="40" height="20" as="geometry" />
        </mxCell>
        <mxCell id="hYOv2v-Nhsj0v9cPK5zJ-133" value="Sistema em&lt;br&gt;Manutenção" style="shape=process;whiteSpace=wrap;html=1;backgroundOutline=1;shadow=0;" parent="1" vertex="1">
          <mxGeometry x="383.75" y="810" width="120" height="60" as="geometry" />
        </mxCell>
        <mxCell id="hYOv2v-Nhsj0v9cPK5zJ-134" value="&lt;b&gt;Sim&lt;/b&gt;" style="text;html=1;strokeColor=none;fillColor=none;align=center;verticalAlign=middle;whiteSpace=wrap;rounded=0;" parent="1" vertex="1">
          <mxGeometry x="230" y="770" width="40" height="20" as="geometry" />
        </mxCell>
        <mxCell id="hYOv2v-Nhsj0v9cPK5zJ-137" value="" style="edgeStyle=orthogonalEdgeStyle;rounded=0;orthogonalLoop=1;jettySize=auto;html=1;" parent="1" source="hYOv2v-Nhsj0v9cPK5zJ-136" target="hYOv2v-Nhsj0v9cPK5zJ-133" edge="1">
          <mxGeometry relative="1" as="geometry">
            <Array as="points">
              <mxPoint x="470" y="840" />
              <mxPoint x="470" y="840" />
            </Array>
          </mxGeometry>
        </mxCell>
        <mxCell id="hYOv2v-Nhsj0v9cPK5zJ-136" value="Sistema esta Funcional?" style="rhombus;whiteSpace=wrap;html=1;rounded=1;" parent="1" vertex="1">
          <mxGeometry x="545" y="800" width="167.5" height="80" as="geometry" />
        </mxCell>
        <mxCell id="hYOv2v-Nhsj0v9cPK5zJ-140" value="&lt;b&gt;Não&lt;/b&gt;" style="text;html=1;strokeColor=none;fillColor=none;align=center;verticalAlign=middle;whiteSpace=wrap;rounded=0;" parent="1" vertex="1">
          <mxGeometry x="510" y="810" width="40" height="20" as="geometry" />
        </mxCell>
        <mxCell id="hYOv2v-Nhsj0v9cPK5zJ-142" value="Prazo para Verificação do Erro" style="shape=process;whiteSpace=wrap;html=1;backgroundOutline=1;shadow=0;" parent="1" vertex="1">
          <mxGeometry x="383.75" y="940" width="120" height="60" as="geometry" />
        </mxCell>
        <mxCell id="hYOv2v-Nhsj0v9cPK5zJ-144" value="" style="endArrow=classic;html=1;exitX=0.5;exitY=1;exitDx=0;exitDy=0;entryX=1;entryY=0.5;entryDx=0;entryDy=0;" parent="1" source="hYOv2v-Nhsj0v9cPK5zJ-136" target="hYOv2v-Nhsj0v9cPK5zJ-142" edge="1">
          <mxGeometry width="50" height="50" relative="1" as="geometry">
            <mxPoint x="610" y="980" as="sourcePoint" />
            <mxPoint x="660" y="930" as="targetPoint" />
            <Array as="points">
              <mxPoint x="629" y="970" />
            </Array>
          </mxGeometry>
        </mxCell>
        <mxCell id="hYOv2v-Nhsj0v9cPK5zJ-145" value="" style="endArrow=classic;html=1;exitX=0.5;exitY=1;exitDx=0;exitDy=0;entryX=0;entryY=0.5;entryDx=0;entryDy=0;" parent="1" source="hYOv2v-Nhsj0v9cPK5zJ-119" target="hYOv2v-Nhsj0v9cPK5zJ-142" edge="1">
          <mxGeometry width="50" height="50" relative="1" as="geometry">
            <mxPoint x="240" y="980" as="sourcePoint" />
            <mxPoint x="290" y="930" as="targetPoint" />
            <Array as="points">
              <mxPoint x="220" y="970" />
            </Array>
          </mxGeometry>
        </mxCell>
        <mxCell id="hYOv2v-Nhsj0v9cPK5zJ-147" value="&lt;b&gt;Sim&lt;/b&gt;" style="text;html=1;strokeColor=none;fillColor=none;align=center;verticalAlign=middle;whiteSpace=wrap;rounded=0;" parent="1" vertex="1">
          <mxGeometry x="230" y="880" width="40" height="20" as="geometry" />
        </mxCell>
        <mxCell id="hYOv2v-Nhsj0v9cPK5zJ-148" value="&lt;b&gt;Sim&lt;/b&gt;" style="text;html=1;strokeColor=none;fillColor=none;align=center;verticalAlign=middle;whiteSpace=wrap;rounded=0;" parent="1" vertex="1">
          <mxGeometry x="643.75" y="880" width="40" height="20" as="geometry" />
        </mxCell>
        <mxCell id="BrNkuaIXWp9q4k69Yl54-2" value="&lt;b&gt;João Victor Ruas Araujo RA: 02211038&lt;/b&gt;" style="text;html=1;strokeColor=none;fillColor=none;align=center;verticalAlign=middle;whiteSpace=wrap;rounded=0;shadow=0;" vertex="1" parent="1">
          <mxGeometry x="1040" y="50" width="160" height="30" as="geometry" />
        </mxCell>
        <mxCell id="BrNkuaIXWp9q4k69Yl54-3" value="&lt;b&gt;Enan Oliveira RA: 02211011&lt;/b&gt;" style="text;html=1;strokeColor=none;fillColor=none;align=center;verticalAlign=middle;whiteSpace=wrap;rounded=0;shadow=0;" vertex="1" parent="1">
          <mxGeometry x="1040" y="90" width="160" height="30" as="geometry" />
        </mxCell>
        <mxCell id="BrNkuaIXWp9q4k69Yl54-4" value="&lt;b&gt;Roberta Pires RA: 02211037&lt;/b&gt;" style="text;html=1;strokeColor=none;fillColor=none;align=center;verticalAlign=middle;whiteSpace=wrap;rounded=0;shadow=0;" vertex="1" parent="1">
          <mxGeometry x="1040" y="130" width="160" height="30" as="geometry" />
        </mxCell>
        <mxCell id="BrNkuaIXWp9q4k69Yl54-5" value="&lt;b&gt;Henrique Piassi RA: 02211028&lt;/b&gt;" style="text;html=1;strokeColor=none;fillColor=none;align=center;verticalAlign=middle;whiteSpace=wrap;rounded=0;shadow=0;" vertex="1" parent="1">
          <mxGeometry x="1040" y="180" width="160" height="30" as="geometry" />
        </mxCell>
        <mxCell id="BrNkuaIXWp9q4k69Yl54-6" value="&lt;b&gt;Lucas Teixeira RA: 02211004&lt;/b&gt;" style="text;html=1;strokeColor=none;fillColor=none;align=center;verticalAlign=middle;whiteSpace=wrap;rounded=0;shadow=0;" vertex="1" parent="1">
          <mxGeometry x="1040" y="230" width="160" height="30" as="geometry" />
        </mxCell>
      </root>
    </mxGraphModel>
  </diagram>
</mxfile>
